PathFileType	4	(X/Y/Z)	 s01c0403.trc
DataRate	CameraRate	NumFrames	NumMarkers	Units	OrigDataRate	OrigDataStartFrame	OrigNumFrames
200	200	5	47	mm	200	1	2000
Frame#	Time	racr			lacr			c7			jug			rlel			rdr			llel			ldr			lic			ric			lasi			rasi			rpsi			lpsi			rgt			lgt			rth1			rth2			rth3			rth4			rlfc			rsh1			rsh2			rsh3			rsh4			rlmal			rmmal			rcal			rtoe			rmt5			lth1			lth2			lth4			lth3			llfc			lsh1			lsh2			lsh3			lsh4			llmal			lmmal			lcal			ltoe			lmt5			SBIKE			LBIKE			RBIKE			
		X1	Y1	Z1	X2	Y2	Z2	X3	Y3	Z3	X4	Y4	Z4	X5	Y5	Z5	X6	Y6	Z6	X7	Y7	Z7	X8	Y8	Z8	X9	Y9	Z9	X10	Y10	Z10	X11	Y11	Z11	X12	Y12	Z12	X13	Y13	Z13	X14	Y14	Z14	X15	Y15	Z15	X16	Y16	Z16	X17	Y17	Z17	X18	Y18	Z18	X19	Y19	Z19	X20	Y20	Z20	X21	Y21	Z21	X22	Y22	Z22	X23	Y23	Z23	X24	Y24	Z24	X25	Y25	Z25	X26	Y26	Z26	X27	Y27	Z27	X28	Y28	Z28	X29	Y29	Z29	X30	Y30	Z30	X31	Y31	Z31	X32	Y32	Z32	X33	Y33	Z33	X34	Y34	Z34	X35	Y35	Z35	X36	Y36	Z36	X37	Y37	Z37	X38	Y38	Z38	X39	Y39	Z39	X40	Y40	Z40	X41	Y41	Z41	X42	Y42	Z42	X43	Y43	Z43	X44	Y44	Z44	X45	Y45	Z45	X46	Y46	Z46	X47	Y47	Z47	
1	0.0050	448.416630	1363.653156	-92.824407	461.683302	1366.443940	-406.906921	NaN	NaN	NaN	NaN	NaN	NaN	542.764201	1103.409446	-11.806077	708.337340	897.030279	-51.041076	544.623993	1104.379012	-493.981931	710.877702	906.618542	-436.351595	117.076915	1162.752750	-432.827269	82.492714	1139.276050	-98.770196	96.995447	1109.758109	-407.626089	112.586219	1091.871753	-127.067734	-47.724648	1170.465925	-203.802819	-52.517601	1178.970421	-306.933067	26.922154	1013.422012	-75.582472	48.753659	1039.519846	-464.999761	92.985692	894.808713	-62.758292	141.784436	825.681746	-68.368887	187.270770	749.967030	-83.105073	187.431179	856.259418	-78.506008	217.383978	644.830966	-104.998732	151.672029	545.410505	-70.724172	125.319645	464.709736	-70.620520	89.325077	383.136210	-81.101337	171.851019	447.250853	-105.209327	38.904230	261.553848	-99.385685	NaN	NaN	NaN	-6.632553	229.671821	-155.466115	260.860788	190.088099	-136.236265	153.266708	167.360177	-69.306325	154.262399	979.130551	-466.733619	243.167954	980.351863	-472.199067	244.369779	1034.161479	-461.126543	328.286623	972.600375	-459.857977	435.972985	914.309961	-437.893947	348.592849	840.668448	-458.304123	304.454964	767.143012	-446.992948	259.436111	696.193576	-428.202652	354.317658	741.870710	-419.752424	195.282541	587.799817	-404.788975	223.329651	595.341919	-321.889700	139.756709	557.495984	-361.270123	410.907599	505.149649	-373.040451	303.302144	497.391770	-437.526467	-225.900613	892.549843	-254.804377	-13.228142	84.731211	-457.899520	-23.190438	81.016534	-57.741703	
2	0.0100	448.390859	1363.597551	-92.804242	461.674032	1366.413946	-406.926784	NaN	NaN	NaN	NaN	NaN	NaN	542.732025	1103.356673	-11.756459	708.301406	897.028068	-51.024554	544.594158	1104.367261	-493.967184	710.872882	906.601640	-436.306009	117.048222	1162.797534	-432.885247	82.476036	1139.261845	-98.743757	96.994582	1109.756706	-407.642015	112.575701	1091.909347	-127.018317	-47.677920	1170.462428	-203.818823	-52.502182	1178.973773	-306.933665	26.933007	1013.420076	-75.594163	48.741086	1039.513013	-464.990869	93.065950	894.830197	-62.781293	141.881350	825.703310	-68.405321	187.416711	750.019966	-83.153100	187.531124	856.306499	-78.559702	217.556310	644.900317	-105.036736	151.747585	545.528406	-70.748847	125.373345	464.902919	-70.623647	89.305769	383.281362	-81.130686	171.873974	447.334311	-105.252710	38.737038	261.817686	-99.412220	NaN	NaN	NaN	-6.804202	229.973452	-155.490153	260.655080	190.116623	-136.245119	153.023624	167.517772	-69.312861	154.281320	979.084204	-466.752967	243.179070	980.333346	-472.167582	244.522718	1034.304601	-461.272351	328.332161	972.552501	-459.818864	435.970756	914.242174	-437.845552	348.635264	840.573382	-458.274921	304.544758	767.076931	-446.949053	259.565833	696.049984	-428.193580	354.418862	741.794536	-419.701520	195.472532	587.651221	-404.792409	223.552300	595.182356	-321.836609	139.961992	557.267275	-361.246379	411.157185	505.101501	-373.057627	303.548246	497.245856	-437.504134	-225.891183	892.554733	-254.804429	-13.231196	84.692069	-457.959747	-23.181370	81.012949	-57.733964	
3	0.0150	448.370862	1363.569294	-92.778501	461.694454	1366.341743	-406.817119	NaN	NaN	NaN	NaN	NaN	NaN	542.710001	1103.311071	-11.714528	708.303994	897.028510	-51.021673	544.590788	1104.333075	-493.958178	710.863013	906.604675	-436.273825	116.990870	1162.794502	-432.860582	82.459236	1139.256566	-98.724638	96.995332	1109.749900	-407.634183	112.583248	1091.914489	-127.031651	-47.697640	1170.467630	-203.809173	-52.518023	1178.982635	-306.914768	26.948929	1013.416205	-75.580426	48.752933	1039.504267	-465.006010	93.134867	894.843370	-62.810503	141.967023	825.719706	-68.450278	187.570552	750.078372	-83.175903	187.621231	856.351364	-78.575982	217.732219	644.985692	-105.077509	151.881022	545.656378	-70.772655	125.417658	465.017349	-70.641711	89.264730	383.457217	-81.151954	171.876619	447.430041	-105.273729	38.572921	262.063234	-99.406078	NaN	NaN	NaN	-6.999596	230.257463	-155.475095	260.456827	190.154665	-136.239848	152.762214	167.679355	-69.298710	154.289329	979.045317	-466.725589	243.186549	980.293007	-472.143180	244.457641	1034.120398	-461.077506	328.336440	972.494162	-459.754696	435.987868	914.219202	-437.798054	348.659498	840.493575	-458.242633	304.617541	766.981049	-446.920341	259.695333	695.911626	-428.183287	354.521709	741.717636	-419.676657	194.820626	587.581201	-405.618487	223.676752	594.999459	-321.822728	139.184474	557.293560	-362.402152	411.419595	505.046326	-373.061953	303.784232	497.102000	-437.509264	-225.887919	892.545357	-254.792120	-13.225787	84.678089	-457.963019	-23.190583	81.018123	-57.743951	
4	0.0200	448.375028	1363.525132	-92.716635	461.055931	1365.663088	-406.771729	NaN	NaN	NaN	NaN	NaN	NaN	542.460429	1103.286120	-11.575199	708.299147	897.016415	-51.003445	544.778869	1104.317837	-493.644446	711.583935	907.000760	-435.815341	116.987684	1162.822918	-432.919277	82.522270	1139.478977	-98.495268	96.991470	1109.761774	-407.634358	112.827201	1091.963636	-127.011788	-47.602800	1170.302858	-203.741350	-50.817101	1176.824019	-308.946343	27.177177	1013.264296	-75.383500	48.689799	1039.437574	-465.002799	93.225790	894.879084	-62.825163	141.310337	826.443790	-68.143942	187.718889	750.126275	-83.193283	187.905921	856.749648	-78.370733	217.901174	645.081413	-105.106522	151.988638	545.778060	-70.789075	125.467001	465.153713	-70.681479	89.215662	383.636417	-81.158397	171.884185	447.532753	-105.294795	38.317129	262.435816	-99.416436	NaN	NaN	NaN	-7.184720	230.513228	-155.481446	260.237912	190.224370	-136.220859	152.534106	167.800423	-69.297845	154.399028	978.980175	-466.710855	243.193807	980.253178	-472.118760	244.552660	1033.927827	-460.887581	328.328865	972.455009	-459.730183	436.077246	914.320153	-437.591976	348.697163	840.422535	-458.199874	307.179810	766.711992	-448.253428	259.973245	695.832602	-428.163017	354.614557	741.645225	-419.665160	195.728093	587.385230	-404.966856	222.207716	595.344670	-320.269508	139.285761	557.269198	-362.409632	411.683511	504.958394	-373.076087	304.045070	496.958542	-437.528940	-225.809390	892.494836	-255.022774	-13.219714	84.705336	-457.947124	-23.177739	81.011355	-57.738950	
5	0.0250	448.432130	1363.421105	-92.764493	460.833747	1365.967867	-406.751684	NaN	NaN	NaN	NaN	NaN	NaN	542.426035	1103.265269	-11.282452	708.818149	897.190042	-50.975947	544.711715	1104.304614	-493.882973	711.378806	906.778586	-435.555489	117.084264	1161.770426	-433.211266	82.498445	1139.446601	-98.460315	96.742650	1109.696693	-407.571358	112.831341	1091.865149	-126.990589	-47.614390	1170.251923	-203.728245	-49.186743	1174.754814	-310.892704	27.171200	1013.137262	-75.225346	47.895366	1039.724183	-465.510183	93.283972	894.896433	-62.829920	141.395917	826.451066	-68.172299	187.843557	750.177721	-83.193145	188.018694	856.797644	-78.407682	218.080360	645.173493	-105.172804	152.078797	545.914890	-70.906855	125.508200	465.249782	-70.686797	89.208121	383.791487	-81.165376	171.938385	447.636896	-105.351613	38.080744	262.678154	-99.455733	NaN	NaN	NaN	-7.385784	230.702545	-155.525803	260.050923	190.255747	-136.254971	152.286555	167.894515	-69.355297	154.502617	978.918224	-466.698254	243.198424	980.204358	-472.098748	247.864332	1033.831990	-458.784108	328.291024	972.221049	-459.430541	435.589552	914.396078	-437.705460	349.146257	840.352086	-458.204487	310.645034	766.390595	-450.051059	259.923587	695.837488	-428.227745	354.809016	741.509444	-419.505442	196.599640	587.194746	-404.342990	222.496053	595.170775	-320.431963	139.693224	556.846452	-362.487987	411.779058	504.747624	-373.030220	304.585098	496.935261	-437.162067	-225.833823	892.449744	-255.014718	-13.009950	84.632020	-458.225153	-23.209403	80.906975	-57.682933	
